<svg xmlns="http://www.w3.org/2000/svg" xmlns:xlink="http://www.w3.org/1999/xlink" width="500" zoomAndPan="magnify" viewBox="0 0 375 374.999991" height="500" preserveAspectRatio="xMidYMid meet" version="1.2"><defs><clipPath id="6f8ca09e1b"><path d="M 38.753906 16 L 333.769531 16 L 333.769531 359 L 38.753906 359 Z M 38.753906 16 "/></clipPath><clipPath id="2162c76edf"><path d="M 38.753906 15 L 333.769531 15 L 333.769531 358 L 38.753906 358 Z M 38.753906 15 "/></clipPath><clipPath id="6ecf7de3d3"><path d="M 40.761719 14 L 335.777344 14 L 335.777344 357 L 40.761719 357 Z M 40.761719 14 "/></clipPath><clipPath id="e151506270"><path d="M 40.761719 17 L 335.777344 17 L 335.777344 360 L 40.761719 360 Z M 40.761719 17 "/></clipPath><clipPath id="ab97c01270"><path d="M 39.757812 14 L 334.773438 14 L 334.773438 357 L 39.757812 357 Z M 39.757812 14 "/></clipPath><clipPath id="88ac1179af"><path d="M 38.753906 17 L 333.769531 17 L 333.769531 360 L 38.753906 360 Z M 38.753906 17 "/></clipPath><clipPath id="fe6fea5f3d"><path d="M 38.753906 18 L 333.769531 18 L 333.769531 361 L 38.753906 361 Z M 38.753906 18 "/></clipPath></defs><g id="4cb4b1907b"><rect x="0" width="375" y="0" height="374.999991" style="fill:#ffffff;fill-opacity:1;stroke:none;"/><rect x="0" width="375" y="0" height="374.999991" style="fill:#d4af37;fill-opacity:1;stroke:none;"/><g clip-rule="nonzero" clip-path="url(#6f8ca09e1b)"><path style=" stroke:none;fill-rule:evenodd;fill:#0f0f0c;fill-opacity:1;" d="M 251.601562 148.675781 C 251.601562 149.429688 251.980469 150.1875 252.734375 150.1875 C 296.132812 158.488281 341.796875 181.132812 333.871094 234.34375 C 328.964844 266.421875 298.019531 283.40625 269.339844 291.707031 C 268.960938 292.085938 268.582031 292.460938 268.207031 293.21875 C 265.941406 308.3125 259.148438 320.390625 247.828125 330.203125 C 224.429688 349.824219 189.710938 358.503906 159.140625 358.503906 C 123.289062 358.503906 83.664062 358.503906 40.261719 358.503906 C 39.886719 358.503906 39.886719 358.128906 40.261719 357.75 C 48.941406 346.429688 48.566406 336.996094 48.566406 320.390625 C 48.566406 256.234375 48.566406 183.394531 48.941406 101.878906 C 48.941406 92.445312 45.546875 84.519531 39.128906 78.480469 C 38.753906 78.105469 38.753906 77.726562 39.128906 77.726562 L 113.476562 77.726562 C 113.855469 77.726562 114.230469 77.347656 114.230469 76.972656 C 114.609375 60.746094 114.609375 47.914062 114.230469 37.347656 C 113.855469 29.421875 110.457031 23.003906 104.417969 17.722656 C 104.042969 17.34375 104.042969 16.96875 104.796875 16.96875 C 150.460938 16.96875 190.085938 17.34375 223.296875 18.097656 C 237.636719 18.476562 247.828125 19.609375 254.621094 21.117188 C 275 25.648438 299.152344 36.214844 309.71875 54.328125 C 317.644531 67.539062 319.53125 82.632812 315.378906 99.238281 C 310.472656 118.484375 293.492188 132.070312 275.753906 138.863281 C 271.980469 139.996094 268.960938 140.375 266.320312 139.617188 C 261.414062 138.488281 258.394531 137.355469 256.128906 136.976562 C 255.375 136.601562 255.375 136.222656 256.128906 135.84375 C 280.28125 122.257812 288.585938 99.238281 284.8125 73.199219 C 281.414062 47.15625 266.320312 30.929688 239.523438 25.269531 C 219.144531 20.363281 198.765625 18.476562 179.140625 18.476562 C 171.21875 18.476562 161.78125 18.855469 150.839844 18.855469 C 147.0625 18.855469 145.175781 21.117188 145.175781 24.890625 L 145.175781 77.347656 C 145.175781 78.105469 145.554688 78.859375 146.308594 78.859375 C 158.761719 78.480469 170.085938 78.859375 180.273438 80.367188 C 193.484375 81.878906 207.070312 86.40625 221.03125 93.953125 C 242.542969 105.277344 252.734375 123.769531 251.601562 148.675781 Z M 106.304688 296.613281 C 111.589844 289.441406 114.230469 281.140625 114.230469 272.082031 C 114.609375 169.433594 114.609375 109.804688 114.230469 93.578125 C 114.230469 93.199219 114.609375 92.824219 114.984375 92.824219 L 143.667969 92.824219 C 144.800781 92.824219 145.175781 93.199219 145.175781 93.953125 L 145.175781 207.550781 C 145.175781 207.925781 145.554688 208.304688 145.933594 208.304688 C 157.632812 207.925781 169.332031 208.679688 181.40625 210.191406 C 198.011719 212.078125 213.863281 216.984375 228.957031 224.53125 C 253.488281 236.984375 269.339844 256.609375 268.960938 284.160156 C 268.960938 284.535156 268.960938 284.535156 269.339844 284.535156 C 269.339844 284.535156 269.714844 284.535156 269.714844 284.535156 C 279.90625 278.875 288.207031 270.949219 293.867188 260.382812 C 301.039062 247.175781 304.8125 228.304688 302.925781 213.210938 C 299.152344 183.394531 282.171875 164.148438 251.980469 154.714844 C 251.222656 154.335938 250.847656 154.714844 250.847656 155.46875 C 245.941406 179.246094 227.449219 193.585938 205.558594 200.757812 C 204.804688 201.132812 204.050781 201.132812 203.296875 201.132812 L 190.464844 197.738281 C 189.332031 197.359375 189.332031 196.980469 190.464844 196.226562 C 210.464844 184.90625 220.277344 167.167969 219.902344 143.015625 C 218.769531 110.9375 202.917969 91.691406 171.972656 85.273438 C 142.535156 78.859375 114.609375 78.859375 84.792969 79.613281 C 81.019531 79.613281 79.132812 81.5 79.132812 85.273438 L 79.132812 349.824219 C 79.132812 353.597656 82.152344 356.617188 85.925781 356.617188 C 107.0625 356.617188 128.195312 356.242188 149.328125 355.488281 C 178.386719 354.730469 205.183594 352.46875 223.675781 327.9375 C 233.863281 314.351562 238.394531 294.347656 237.261719 277.367188 C 235.75 251.328125 223.296875 232.835938 200.652344 220.757812 C 184.425781 212.832031 164.425781 210.945312 146.308594 210.566406 C 145.554688 210.566406 145.175781 210.945312 145.175781 211.699219 L 145.175781 289.441406 C 145.175781 293.21875 148.195312 296.234375 151.96875 296.234375 L 224.429688 294.726562 C 224.804688 294.726562 225.183594 295.105469 224.804688 295.480469 L 224.429688 296.992188 C 224.429688 297.746094 224.050781 297.746094 223.675781 297.746094 L 107.0625 297.746094 C 105.929688 297.746094 105.929688 297.367188 106.304688 296.613281 Z M 106.304688 296.613281 "/></g><g clip-rule="nonzero" clip-path="url(#2162c76edf)"><path style=" stroke:none;fill-rule:evenodd;fill:#0f0f0c;fill-opacity:1;" d="M 251.601562 147.671875 C 251.601562 148.425781 251.980469 149.183594 252.734375 149.183594 C 296.132812 157.484375 341.796875 180.128906 333.871094 233.339844 C 328.964844 265.417969 298.019531 282.402344 269.339844 290.703125 C 268.960938 291.082031 268.582031 291.457031 268.207031 292.214844 C 265.941406 307.308594 259.148438 319.386719 247.828125 329.199219 C 224.429688 348.820312 189.710938 357.503906 159.140625 357.503906 C 123.289062 357.503906 83.664062 357.503906 40.261719 357.503906 C 39.886719 357.503906 39.886719 357.125 40.261719 356.746094 C 48.941406 345.425781 48.566406 335.992188 48.566406 319.386719 C 48.566406 255.230469 48.566406 182.394531 48.941406 100.875 C 48.941406 91.441406 45.546875 83.515625 39.128906 77.476562 C 38.753906 77.101562 38.753906 76.722656 39.128906 76.722656 L 113.476562 76.722656 C 113.855469 76.722656 114.230469 76.347656 114.230469 75.96875 C 114.609375 59.742188 114.609375 46.910156 114.230469 36.34375 C 113.855469 28.417969 110.457031 22 104.417969 16.71875 C 104.042969 16.339844 104.042969 15.964844 104.796875 15.964844 C 150.460938 15.964844 190.085938 16.339844 223.296875 17.09375 C 237.636719 17.472656 247.828125 18.605469 254.621094 20.113281 C 275 24.644531 299.152344 35.210938 309.71875 53.324219 C 317.644531 66.535156 319.53125 81.628906 315.378906 98.234375 C 310.472656 117.480469 293.492188 131.066406 275.753906 137.859375 C 271.980469 138.992188 268.960938 139.371094 266.320312 138.617188 C 261.414062 137.484375 258.394531 136.351562 256.128906 135.972656 C 255.375 135.597656 255.375 135.21875 256.128906 134.839844 C 280.28125 121.253906 288.585938 98.234375 284.8125 72.195312 C 281.414062 46.15625 266.320312 29.925781 239.523438 24.265625 C 219.144531 19.359375 198.765625 17.472656 179.140625 17.472656 C 171.21875 17.472656 161.78125 17.851562 150.839844 17.851562 C 147.0625 17.851562 145.175781 20.113281 145.175781 23.886719 L 145.175781 76.347656 C 145.175781 77.101562 145.554688 77.855469 146.308594 77.855469 C 158.761719 77.476562 170.085938 77.855469 180.273438 79.363281 C 193.484375 80.875 207.070312 85.402344 221.03125 92.949219 C 242.542969 104.273438 252.734375 122.765625 251.601562 147.671875 Z M 106.304688 295.609375 C 111.589844 288.441406 114.230469 280.136719 114.230469 271.078125 C 114.609375 168.429688 114.609375 108.800781 114.230469 92.574219 C 114.230469 92.195312 114.609375 91.820312 114.984375 91.820312 L 143.667969 91.820312 C 144.800781 91.820312 145.175781 92.195312 145.175781 92.949219 L 145.175781 206.546875 C 145.175781 206.921875 145.554688 207.300781 145.933594 207.300781 C 157.632812 206.921875 169.332031 207.679688 181.40625 209.1875 C 198.011719 211.074219 213.863281 215.980469 228.957031 223.527344 C 253.488281 235.980469 269.339844 255.605469 268.960938 283.15625 C 268.960938 283.535156 268.960938 283.535156 269.339844 283.535156 C 269.339844 283.535156 269.714844 283.535156 269.714844 283.535156 C 279.90625 277.871094 288.207031 269.949219 293.867188 259.378906 C 301.039062 246.171875 304.8125 227.300781 302.925781 212.207031 C 299.152344 182.394531 282.171875 163.144531 251.980469 153.710938 C 251.222656 153.332031 250.847656 153.710938 250.847656 154.464844 C 245.941406 178.242188 227.449219 192.582031 205.558594 199.753906 C 204.804688 200.128906 204.050781 200.128906 203.296875 200.128906 L 190.464844 196.734375 C 189.332031 196.355469 189.332031 195.980469 190.464844 195.222656 C 210.464844 183.902344 220.277344 166.164062 219.902344 142.011719 C 218.769531 109.933594 202.917969 90.6875 171.972656 84.269531 C 142.535156 77.855469 114.609375 77.855469 84.792969 78.609375 C 81.019531 78.609375 79.132812 80.496094 79.132812 84.269531 L 79.132812 348.820312 C 79.132812 352.597656 82.152344 355.613281 85.925781 355.613281 C 107.0625 355.613281 128.195312 355.238281 149.328125 354.484375 C 178.386719 353.726562 205.183594 351.464844 223.675781 326.933594 C 233.863281 313.347656 238.394531 293.34375 237.261719 276.363281 C 235.75 250.324219 223.296875 231.832031 200.652344 219.753906 C 184.425781 211.828125 164.425781 209.941406 146.308594 209.566406 C 145.554688 209.566406 145.175781 209.941406 145.175781 210.695312 L 145.175781 288.441406 C 145.175781 292.214844 148.195312 295.234375 151.96875 295.234375 L 224.429688 293.722656 C 224.804688 293.722656 225.183594 294.101562 224.804688 294.476562 L 224.429688 295.988281 C 224.429688 296.742188 224.050781 296.742188 223.675781 296.742188 L 107.0625 296.742188 C 105.929688 296.742188 105.929688 296.363281 106.304688 295.609375 Z M 106.304688 295.609375 "/></g><g clip-rule="nonzero" clip-path="url(#6ecf7de3d3)"><path style=" stroke:none;fill-rule:evenodd;fill:#0f0f0c;fill-opacity:1;" d="M 253.609375 146.667969 C 253.609375 147.425781 253.984375 148.179688 254.742188 148.179688 C 298.140625 156.480469 343.804688 179.125 335.878906 232.335938 C 330.972656 264.414062 300.027344 281.398438 271.34375 289.699219 C 270.96875 290.078125 270.589844 290.457031 270.214844 291.210938 C 267.949219 306.304688 261.15625 318.382812 249.835938 328.195312 C 226.4375 347.820312 191.714844 356.5 161.148438 356.5 C 125.296875 356.5 85.667969 356.5 42.269531 356.5 C 41.890625 356.5 41.890625 356.121094 42.269531 355.742188 C 50.949219 344.421875 50.570312 334.988281 50.570312 318.382812 C 50.570312 254.226562 50.570312 181.390625 50.949219 99.871094 C 50.949219 90.4375 47.554688 82.511719 41.136719 76.476562 C 40.761719 76.097656 40.761719 75.71875 41.136719 75.71875 L 115.484375 75.71875 C 115.859375 75.71875 116.238281 75.34375 116.238281 74.964844 C 116.617188 58.738281 116.617188 45.90625 116.238281 35.339844 C 115.859375 27.414062 112.464844 21 106.425781 15.714844 C 106.046875 15.335938 106.046875 14.960938 106.804688 14.960938 C 152.46875 14.960938 192.09375 15.335938 225.304688 16.09375 C 239.644531 16.46875 249.835938 17.601562 256.628906 19.109375 C 277.007812 23.640625 301.160156 34.207031 311.726562 52.320312 C 319.652344 65.53125 321.539062 80.625 317.386719 97.230469 C 312.480469 116.476562 295.5 130.0625 277.761719 136.855469 C 273.988281 137.988281 270.96875 138.367188 268.328125 137.613281 C 263.421875 136.480469 260.402344 135.347656 258.136719 134.96875 C 257.382812 134.59375 257.382812 134.214844 258.136719 133.839844 C 282.289062 120.253906 290.59375 97.230469 286.820312 71.191406 C 283.421875 45.152344 268.328125 28.921875 241.53125 23.261719 C 221.152344 18.355469 200.773438 16.46875 181.148438 16.46875 C 173.222656 16.46875 163.789062 16.847656 152.84375 16.847656 C 149.070312 16.847656 147.183594 19.109375 147.183594 22.886719 L 147.183594 75.34375 C 147.183594 76.097656 147.5625 76.851562 148.316406 76.851562 C 160.769531 76.476562 172.09375 76.851562 182.28125 78.363281 C 195.488281 79.871094 209.074219 84.398438 223.039062 91.949219 C 244.550781 103.269531 254.742188 121.761719 253.609375 146.667969 Z M 108.3125 294.605469 C 113.597656 287.4375 116.238281 279.132812 116.238281 270.074219 C 116.617188 167.425781 116.617188 107.796875 116.238281 91.570312 C 116.238281 91.191406 116.617188 90.816406 116.992188 90.816406 L 145.675781 90.816406 C 146.804688 90.816406 147.183594 91.191406 147.183594 91.949219 L 147.183594 205.542969 C 147.183594 205.917969 147.5625 206.296875 147.9375 206.296875 C 159.636719 205.917969 171.335938 206.675781 183.414062 208.183594 C 200.019531 210.070312 215.871094 214.976562 230.964844 222.523438 C 255.496094 234.980469 271.34375 254.601562 270.96875 282.152344 C 270.96875 282.53125 270.96875 282.53125 271.34375 282.53125 C 271.34375 282.53125 271.722656 282.53125 271.722656 282.53125 C 281.914062 276.871094 290.214844 268.945312 295.875 258.378906 C 303.046875 245.167969 306.820312 226.296875 304.933594 211.203125 C 301.160156 181.390625 284.175781 162.140625 253.984375 152.707031 C 253.230469 152.332031 252.851562 152.707031 252.851562 153.460938 C 247.949219 177.238281 229.457031 191.578125 207.566406 198.75 C 206.8125 199.125 206.058594 199.125 205.300781 199.125 L 192.472656 195.730469 C 191.339844 195.351562 191.339844 194.976562 192.472656 194.21875 C 212.472656 182.898438 222.285156 165.160156 221.90625 141.007812 C 220.773438 108.929688 204.925781 89.683594 173.980469 83.269531 C 144.542969 76.851562 116.617188 76.851562 86.800781 77.605469 C 83.027344 77.605469 81.140625 79.492188 81.140625 83.269531 L 81.140625 347.820312 C 81.140625 351.59375 84.160156 354.613281 87.933594 354.613281 C 109.066406 354.613281 130.203125 354.234375 151.335938 353.480469 C 180.394531 352.726562 207.1875 350.460938 225.679688 325.929688 C 235.871094 312.34375 240.398438 292.34375 239.265625 275.359375 C 237.757812 249.320312 225.304688 230.828125 202.660156 218.75 C 186.433594 210.824219 166.429688 208.9375 148.316406 208.5625 C 147.5625 208.5625 147.183594 208.9375 147.183594 209.695312 L 147.183594 287.4375 C 147.183594 291.210938 150.203125 294.230469 153.976562 294.230469 L 226.4375 292.71875 C 226.8125 292.71875 227.191406 293.097656 226.8125 293.472656 L 226.4375 294.984375 C 226.4375 295.738281 226.058594 295.738281 225.679688 295.738281 L 109.066406 295.738281 C 107.933594 295.738281 107.933594 295.359375 108.3125 294.605469 Z M 108.3125 294.605469 "/></g><g clip-rule="nonzero" clip-path="url(#e151506270)"><path style=" stroke:none;fill-rule:evenodd;fill:#0f0f0c;fill-opacity:1;" d="M 253.609375 149.679688 C 253.609375 150.433594 253.984375 151.1875 254.742188 151.1875 C 298.140625 159.492188 343.804688 182.136719 335.878906 235.347656 C 330.972656 267.425781 300.027344 284.410156 271.34375 292.710938 C 270.96875 293.089844 270.589844 293.464844 270.214844 294.21875 C 267.949219 309.316406 261.15625 321.390625 249.835938 331.203125 C 226.4375 350.828125 191.714844 359.507812 161.148438 359.507812 C 125.296875 359.507812 85.667969 359.507812 42.269531 359.507812 C 41.890625 359.507812 41.890625 359.132812 42.269531 358.753906 C 50.949219 347.433594 50.570312 337.996094 50.570312 321.390625 C 50.570312 257.234375 50.570312 184.398438 50.949219 102.882812 C 50.949219 93.449219 47.554688 85.523438 41.136719 79.484375 C 40.761719 79.109375 40.761719 78.730469 41.136719 78.730469 L 115.484375 78.730469 C 115.859375 78.730469 116.238281 78.351562 116.238281 77.976562 C 116.617188 61.746094 116.617188 48.917969 116.238281 38.347656 C 115.859375 30.425781 112.464844 24.007812 106.425781 18.726562 C 106.046875 18.347656 106.046875 17.96875 106.804688 17.96875 C 152.46875 17.96875 192.09375 18.347656 225.304688 19.101562 C 239.644531 19.480469 249.835938 20.613281 256.628906 22.121094 C 277.007812 26.648438 301.160156 37.21875 311.726562 55.332031 C 319.652344 68.539062 321.539062 83.636719 317.386719 100.242188 C 312.480469 119.488281 295.5 133.074219 277.761719 139.867188 C 273.988281 141 270.96875 141.378906 268.328125 140.621094 C 263.421875 139.488281 260.402344 138.359375 258.136719 137.980469 C 257.382812 137.601562 257.382812 137.226562 258.136719 136.847656 C 282.289062 123.261719 290.59375 100.242188 286.820312 74.203125 C 283.421875 48.160156 268.328125 31.933594 241.53125 26.273438 C 221.152344 21.367188 200.773438 19.480469 181.148438 19.480469 C 173.222656 19.480469 163.789062 19.855469 152.84375 19.855469 C 149.070312 19.855469 147.183594 22.121094 147.183594 25.894531 L 147.183594 78.351562 C 147.183594 79.109375 147.5625 79.863281 148.316406 79.863281 C 160.769531 79.484375 172.09375 79.863281 182.28125 81.371094 C 195.488281 82.882812 209.074219 87.410156 223.039062 94.957031 C 244.550781 106.28125 254.742188 124.773438 253.609375 149.679688 Z M 108.3125 297.617188 C 113.597656 290.445312 116.238281 282.144531 116.238281 273.085938 C 116.617188 170.4375 116.617188 110.808594 116.238281 94.582031 C 116.238281 94.203125 116.617188 93.824219 116.992188 93.824219 L 145.675781 93.824219 C 146.804688 93.824219 147.183594 94.203125 147.183594 94.957031 L 147.183594 208.550781 C 147.183594 208.929688 147.5625 209.308594 147.9375 209.308594 C 159.636719 208.929688 171.335938 209.683594 183.414062 211.195312 C 200.019531 213.082031 215.871094 217.988281 230.964844 225.535156 C 255.496094 237.988281 271.34375 257.613281 270.96875 285.164062 C 270.96875 285.539062 270.96875 285.539062 271.34375 285.539062 C 271.34375 285.539062 271.722656 285.539062 271.722656 285.539062 C 281.914062 279.878906 290.214844 271.953125 295.875 261.386719 C 303.046875 248.179688 306.820312 229.308594 304.933594 214.214844 C 301.160156 184.398438 284.175781 165.152344 253.984375 155.71875 C 253.230469 155.339844 252.851562 155.71875 252.851562 156.472656 C 247.949219 180.25 229.457031 194.589844 207.566406 201.757812 C 206.8125 202.136719 206.058594 202.136719 205.300781 202.136719 L 192.472656 198.742188 C 191.339844 198.363281 191.339844 197.984375 192.472656 197.230469 C 212.472656 185.910156 222.285156 168.171875 221.90625 144.019531 C 220.773438 111.941406 204.925781 92.695312 173.980469 86.277344 C 144.542969 79.863281 116.617188 79.863281 86.800781 80.617188 C 83.027344 80.617188 81.140625 82.503906 81.140625 86.277344 L 81.140625 350.828125 C 81.140625 354.601562 84.160156 357.621094 87.933594 357.621094 C 109.066406 357.621094 130.203125 357.246094 151.335938 356.488281 C 180.394531 355.734375 207.1875 353.472656 225.679688 328.941406 C 235.871094 315.355469 240.398438 295.351562 239.265625 278.371094 C 237.757812 252.328125 225.304688 233.835938 202.660156 221.761719 C 186.433594 213.835938 166.429688 211.949219 148.316406 211.570312 C 147.5625 211.570312 147.183594 211.949219 147.183594 212.703125 L 147.183594 290.445312 C 147.183594 294.21875 150.203125 297.238281 153.976562 297.238281 L 226.4375 295.730469 C 226.8125 295.730469 227.191406 296.105469 226.8125 296.484375 L 226.4375 297.996094 C 226.4375 298.75 226.058594 298.75 225.679688 298.75 L 109.066406 298.75 C 107.933594 298.75 107.933594 298.371094 108.3125 297.617188 Z M 108.3125 297.617188 "/></g><g clip-rule="nonzero" clip-path="url(#ab97c01270)"><path style=" stroke:none;fill-rule:evenodd;fill:#0f0f0c;fill-opacity:1;" d="M 252.605469 146.667969 C 252.605469 147.425781 252.980469 148.179688 253.738281 148.179688 C 297.136719 156.480469 342.800781 179.125 334.875 232.335938 C 329.96875 264.414062 299.023438 281.398438 270.34375 289.699219 C 269.964844 290.078125 269.585938 290.457031 269.210938 291.210938 C 266.945312 306.304688 260.152344 318.382812 248.832031 328.195312 C 225.433594 347.820312 190.710938 356.5 160.144531 356.5 C 124.292969 356.5 84.664062 356.5 41.265625 356.5 C 40.886719 356.5 40.886719 356.121094 41.265625 355.742188 C 49.945312 344.421875 49.570312 334.988281 49.570312 318.382812 C 49.570312 254.226562 49.570312 181.390625 49.945312 99.871094 C 49.945312 90.4375 46.550781 82.511719 40.132812 76.476562 C 39.757812 76.097656 39.757812 75.71875 40.132812 75.71875 L 114.480469 75.71875 C 114.855469 75.71875 115.234375 75.34375 115.234375 74.964844 C 115.613281 58.738281 115.613281 45.90625 115.234375 35.339844 C 114.855469 27.414062 111.460938 21 105.421875 15.714844 C 105.046875 15.335938 105.046875 14.960938 105.800781 14.960938 C 151.464844 14.960938 191.089844 15.335938 224.300781 16.09375 C 238.640625 16.46875 248.832031 17.601562 255.625 19.109375 C 276.003906 23.640625 300.15625 34.207031 310.722656 52.320312 C 318.648438 65.53125 320.535156 80.625 316.382812 97.230469 C 311.476562 116.476562 294.496094 130.0625 276.757812 136.855469 C 272.984375 137.988281 269.964844 138.367188 267.324219 137.613281 C 262.417969 136.480469 259.398438 135.347656 257.132812 134.96875 C 256.378906 134.59375 256.378906 134.214844 257.132812 133.839844 C 281.285156 120.253906 289.589844 97.230469 285.816406 71.191406 C 282.417969 45.152344 267.324219 28.921875 240.527344 23.261719 C 220.148438 18.355469 199.769531 16.46875 180.144531 16.46875 C 172.21875 16.46875 162.785156 16.847656 151.839844 16.847656 C 148.066406 16.847656 146.179688 19.109375 146.179688 22.886719 L 146.179688 75.34375 C 146.179688 76.097656 146.558594 76.851562 147.3125 76.851562 C 159.765625 76.476562 171.089844 76.851562 181.277344 78.363281 C 194.488281 79.871094 208.074219 84.398438 222.035156 91.949219 C 243.546875 103.269531 253.738281 121.761719 252.605469 146.667969 Z M 107.308594 294.605469 C 112.59375 287.4375 115.234375 279.132812 115.234375 270.074219 C 115.613281 167.425781 115.613281 107.796875 115.234375 91.570312 C 115.234375 91.191406 115.613281 90.816406 115.988281 90.816406 L 144.671875 90.816406 C 145.804688 90.816406 146.179688 91.191406 146.179688 91.949219 L 146.179688 205.542969 C 146.179688 205.917969 146.558594 206.296875 146.933594 206.296875 C 158.632812 205.917969 170.332031 206.675781 182.410156 208.183594 C 199.015625 210.070312 214.867188 214.976562 229.960938 222.523438 C 254.492188 234.980469 270.34375 254.601562 269.964844 282.152344 C 269.964844 282.53125 269.964844 282.53125 270.34375 282.53125 C 270.34375 282.53125 270.71875 282.53125 270.71875 282.53125 C 280.910156 276.871094 289.210938 268.945312 294.871094 258.378906 C 302.042969 245.167969 305.816406 226.296875 303.929688 211.203125 C 300.15625 181.390625 283.171875 162.140625 252.980469 152.707031 C 252.226562 152.332031 251.851562 152.707031 251.851562 153.460938 C 246.945312 177.238281 228.453125 191.578125 206.5625 198.75 C 205.808594 199.125 205.054688 199.125 204.296875 199.125 L 191.46875 195.730469 C 190.335938 195.351562 190.335938 194.976562 191.46875 194.21875 C 211.46875 182.898438 221.28125 165.160156 220.902344 141.007812 C 219.773438 108.929688 203.921875 89.683594 172.976562 83.269531 C 143.539062 76.851562 115.613281 76.851562 85.796875 77.605469 C 82.023438 77.605469 80.136719 79.492188 80.136719 83.269531 L 80.136719 347.820312 C 80.136719 351.59375 83.15625 354.613281 86.929688 354.613281 C 108.0625 354.613281 129.199219 354.234375 150.332031 353.480469 C 179.390625 352.726562 206.1875 350.460938 224.679688 325.929688 C 234.867188 312.34375 239.394531 292.34375 238.265625 275.359375 C 236.753906 249.320312 224.300781 230.828125 201.65625 218.75 C 185.429688 210.824219 165.425781 208.9375 147.3125 208.5625 C 146.558594 208.5625 146.179688 208.9375 146.179688 209.695312 L 146.179688 287.4375 C 146.179688 291.210938 149.199219 294.230469 152.972656 294.230469 L 225.433594 292.71875 C 225.808594 292.71875 226.1875 293.097656 225.808594 293.472656 L 225.433594 294.984375 C 225.433594 295.738281 225.054688 295.738281 224.679688 295.738281 L 108.0625 295.738281 C 106.933594 295.738281 106.933594 295.359375 107.308594 294.605469 Z M 107.308594 294.605469 "/></g><g clip-rule="nonzero" clip-path="url(#88ac1179af)"><path style=" stroke:none;fill-rule:evenodd;fill:#0f0f0c;fill-opacity:1;" d="M 251.601562 149.679688 C 251.601562 150.433594 251.980469 151.1875 252.734375 151.1875 C 296.132812 159.492188 341.796875 182.136719 333.871094 235.347656 C 328.964844 267.425781 298.019531 284.410156 269.339844 292.710938 C 268.960938 293.089844 268.582031 293.464844 268.207031 294.21875 C 265.941406 309.316406 259.148438 321.390625 247.828125 331.203125 C 224.429688 350.828125 189.710938 359.507812 159.140625 359.507812 C 123.289062 359.507812 83.664062 359.507812 40.261719 359.507812 C 39.886719 359.507812 39.886719 359.132812 40.261719 358.753906 C 48.941406 347.433594 48.566406 337.996094 48.566406 321.390625 C 48.566406 257.234375 48.566406 184.398438 48.941406 102.882812 C 48.941406 93.449219 45.546875 85.523438 39.128906 79.484375 C 38.753906 79.109375 38.753906 78.730469 39.128906 78.730469 L 113.476562 78.730469 C 113.855469 78.730469 114.230469 78.351562 114.230469 77.976562 C 114.609375 61.746094 114.609375 48.917969 114.230469 38.347656 C 113.855469 30.425781 110.457031 24.007812 104.417969 18.726562 C 104.042969 18.347656 104.042969 17.96875 104.796875 17.96875 C 150.460938 17.96875 190.085938 18.347656 223.296875 19.101562 C 237.636719 19.480469 247.828125 20.613281 254.621094 22.121094 C 275 26.648438 299.152344 37.21875 309.71875 55.332031 C 317.644531 68.539062 319.53125 83.636719 315.378906 100.242188 C 310.472656 119.488281 293.492188 133.074219 275.753906 139.867188 C 271.980469 141 268.960938 141.378906 266.320312 140.621094 C 261.414062 139.488281 258.394531 138.359375 256.128906 137.980469 C 255.375 137.601562 255.375 137.226562 256.128906 136.847656 C 280.28125 123.261719 288.585938 100.242188 284.8125 74.203125 C 281.414062 48.160156 266.320312 31.933594 239.523438 26.273438 C 219.144531 21.367188 198.765625 19.480469 179.140625 19.480469 C 171.21875 19.480469 161.78125 19.855469 150.839844 19.855469 C 147.0625 19.855469 145.175781 22.121094 145.175781 25.894531 L 145.175781 78.351562 C 145.175781 79.109375 145.554688 79.863281 146.308594 79.863281 C 158.761719 79.484375 170.085938 79.863281 180.273438 81.371094 C 193.484375 82.882812 207.070312 87.410156 221.03125 94.957031 C 242.542969 106.28125 252.734375 124.773438 251.601562 149.679688 Z M 106.304688 297.617188 C 111.589844 290.445312 114.230469 282.144531 114.230469 273.085938 C 114.609375 170.4375 114.609375 110.808594 114.230469 94.582031 C 114.230469 94.203125 114.609375 93.824219 114.984375 93.824219 L 143.667969 93.824219 C 144.800781 93.824219 145.175781 94.203125 145.175781 94.957031 L 145.175781 208.550781 C 145.175781 208.929688 145.554688 209.308594 145.933594 209.308594 C 157.632812 208.929688 169.332031 209.683594 181.40625 211.195312 C 198.011719 213.082031 213.863281 217.988281 228.957031 225.535156 C 253.488281 237.988281 269.339844 257.613281 268.960938 285.164062 C 268.960938 285.539062 268.960938 285.539062 269.339844 285.539062 C 269.339844 285.539062 269.714844 285.539062 269.714844 285.539062 C 279.90625 279.878906 288.207031 271.953125 293.867188 261.386719 C 301.039062 248.179688 304.8125 229.308594 302.925781 214.214844 C 299.152344 184.398438 282.171875 165.152344 251.980469 155.71875 C 251.222656 155.339844 250.847656 155.71875 250.847656 156.472656 C 245.941406 180.25 227.449219 194.589844 205.558594 201.757812 C 204.804688 202.136719 204.050781 202.136719 203.296875 202.136719 L 190.464844 198.742188 C 189.332031 198.363281 189.332031 197.984375 190.464844 197.230469 C 210.464844 185.910156 220.277344 168.171875 219.902344 144.019531 C 218.769531 111.941406 202.917969 92.695312 171.972656 86.277344 C 142.535156 79.863281 114.609375 79.863281 84.792969 80.617188 C 81.019531 80.617188 79.132812 82.503906 79.132812 86.277344 L 79.132812 350.828125 C 79.132812 354.601562 82.152344 357.621094 85.925781 357.621094 C 107.0625 357.621094 128.195312 357.246094 149.328125 356.488281 C 178.386719 355.734375 205.183594 353.472656 223.675781 328.941406 C 233.863281 315.355469 238.394531 295.351562 237.261719 278.371094 C 235.75 252.328125 223.296875 233.835938 200.652344 221.761719 C 184.425781 213.835938 164.425781 211.949219 146.308594 211.570312 C 145.554688 211.570312 145.175781 211.949219 145.175781 212.703125 L 145.175781 290.445312 C 145.175781 294.21875 148.195312 297.238281 151.96875 297.238281 L 224.429688 295.730469 C 224.804688 295.730469 225.183594 296.105469 224.804688 296.484375 L 224.429688 297.996094 C 224.429688 298.75 224.050781 298.75 223.675781 298.75 L 107.0625 298.75 C 105.929688 298.75 105.929688 298.371094 106.304688 297.617188 Z M 106.304688 297.617188 "/></g><g clip-rule="nonzero" clip-path="url(#fe6fea5f3d)"><path style=" stroke:none;fill-rule:evenodd;fill:#0f0f0c;fill-opacity:1;" d="M 251.601562 150.683594 C 251.601562 151.4375 251.980469 152.191406 252.734375 152.191406 C 296.132812 160.496094 341.796875 183.140625 333.871094 236.351562 C 328.964844 268.429688 298.019531 285.410156 269.339844 293.714844 C 268.960938 294.089844 268.582031 294.46875 268.207031 295.222656 C 265.941406 310.320312 259.148438 322.394531 247.828125 332.207031 C 224.429688 351.832031 189.710938 360.511719 159.140625 360.511719 C 123.289062 360.511719 83.664062 360.511719 40.261719 360.511719 C 39.886719 360.511719 39.886719 360.136719 40.261719 359.757812 C 48.941406 348.4375 48.566406 339 48.566406 322.394531 C 48.566406 258.238281 48.566406 185.402344 48.941406 103.886719 C 48.941406 94.453125 45.546875 86.527344 39.128906 80.488281 C 38.753906 80.109375 38.753906 79.734375 39.128906 79.734375 L 113.476562 79.734375 C 113.855469 79.734375 114.230469 79.355469 114.230469 78.980469 C 114.609375 62.75 114.609375 49.917969 114.230469 39.351562 C 113.855469 31.425781 110.457031 25.011719 104.417969 19.730469 C 104.042969 19.351562 104.042969 18.972656 104.796875 18.972656 C 150.460938 18.972656 190.085938 19.351562 223.296875 20.105469 C 237.636719 20.484375 247.828125 21.617188 254.621094 23.125 C 275 27.652344 299.152344 38.21875 309.71875 56.335938 C 317.644531 69.542969 319.53125 84.640625 315.378906 101.246094 C 310.472656 120.492188 293.492188 134.078125 275.753906 140.871094 C 271.980469 142.003906 268.960938 142.378906 266.320312 141.625 C 261.414062 140.492188 258.394531 139.363281 256.128906 138.984375 C 255.375 138.605469 255.375 138.230469 256.128906 137.851562 C 280.28125 124.265625 288.585938 101.246094 284.8125 75.203125 C 281.414062 49.164062 266.320312 32.9375 239.523438 27.277344 C 219.144531 22.371094 198.765625 20.484375 179.140625 20.484375 C 171.21875 20.484375 161.78125 20.859375 150.839844 20.859375 C 147.0625 20.859375 145.175781 23.125 145.175781 26.898438 L 145.175781 79.355469 C 145.175781 80.109375 145.554688 80.867188 146.308594 80.867188 C 158.761719 80.488281 170.085938 80.867188 180.273438 82.375 C 193.484375 83.886719 207.070312 88.414062 221.03125 95.960938 C 242.542969 107.285156 252.734375 125.773438 251.601562 150.683594 Z M 106.304688 298.621094 C 111.589844 291.449219 114.230469 283.148438 114.230469 274.089844 C 114.609375 171.441406 114.609375 111.8125 114.230469 95.585938 C 114.230469 95.207031 114.609375 94.828125 114.984375 94.828125 L 143.667969 94.828125 C 144.800781 94.828125 145.175781 95.207031 145.175781 95.960938 L 145.175781 209.554688 C 145.175781 209.933594 145.554688 210.3125 145.933594 210.3125 C 157.632812 209.933594 169.332031 210.6875 181.40625 212.199219 C 198.011719 214.085938 213.863281 218.992188 228.957031 226.539062 C 253.488281 238.992188 269.339844 258.617188 268.960938 286.167969 C 268.960938 286.542969 268.960938 286.542969 269.339844 286.542969 C 269.339844 286.542969 269.714844 286.542969 269.714844 286.542969 C 279.90625 280.882812 288.207031 272.957031 293.867188 262.390625 C 301.039062 249.183594 304.8125 230.3125 302.925781 215.21875 C 299.152344 185.402344 282.171875 166.15625 251.980469 156.722656 C 251.222656 156.34375 250.847656 156.722656 250.847656 157.476562 C 245.941406 181.25 227.449219 195.59375 205.558594 202.761719 C 204.804688 203.140625 204.050781 203.140625 203.296875 203.140625 L 190.464844 199.742188 C 189.332031 199.367188 189.332031 198.988281 190.464844 198.234375 C 210.464844 186.914062 220.277344 169.175781 219.902344 145.023438 C 218.769531 112.945312 202.917969 93.695312 171.972656 87.28125 C 142.535156 80.867188 114.609375 80.867188 84.792969 81.621094 C 81.019531 81.621094 79.132812 83.507812 79.132812 87.28125 L 79.132812 351.832031 C 79.132812 355.605469 82.152344 358.625 85.925781 358.625 C 107.0625 358.625 128.195312 358.25 149.328125 357.492188 C 178.386719 356.738281 205.183594 354.472656 223.675781 329.945312 C 233.863281 316.359375 238.394531 296.355469 237.261719 279.375 C 235.75 253.332031 223.296875 234.839844 200.652344 222.765625 C 184.425781 214.839844 164.425781 212.953125 146.308594 212.574219 C 145.554688 212.574219 145.175781 212.953125 145.175781 213.707031 L 145.175781 291.449219 C 145.175781 295.222656 148.195312 298.242188 151.96875 298.242188 L 224.429688 296.734375 C 224.804688 296.734375 225.183594 297.109375 224.804688 297.488281 L 224.429688 298.996094 C 224.429688 299.753906 224.050781 299.753906 223.675781 299.753906 L 107.0625 299.753906 C 105.929688 299.753906 105.929688 299.375 106.304688 298.621094 Z M 106.304688 298.621094 "/></g></g></svg>