<svg xmlns="http://www.w3.org/2000/svg" xmlns:xlink="http://www.w3.org/1999/xlink" width="500" zoomAndPan="magnify" viewBox="0 0 375 374.999991" height="500" preserveAspectRatio="xMidYMid meet" version="1.2"><defs><clipPath id="e5939231e0"><path d="M 77.074219 60 L 297.574219 60 L 297.574219 316 L 77.074219 316 Z M 77.074219 60 "/></clipPath></defs><g id="5a11f21386"><rect x="0" width="375" y="0" height="374.999991" style="fill:#ffffff;fill-opacity:1;stroke:none;"/><rect x="0" width="375" y="0" height="374.999991" style="fill:#d4af37;fill-opacity:1;stroke:none;"/><g clip-rule="nonzero" clip-path="url(#e5939231e0)"><path style=" stroke:none;fill-rule:evenodd;fill:#0f0f0c;fill-opacity:1;" d="M 236.160156 158.484375 C 236.160156 159.046875 236.441406 159.609375 237.007812 159.609375 C 269.445312 165.816406 303.574219 182.742188 297.652344 222.511719 C 293.984375 246.488281 270.855469 259.179688 249.417969 265.386719 C 249.136719 265.667969 248.851562 265.949219 248.570312 266.515625 C 246.878906 277.796875 241.800781 286.824219 233.339844 294.15625 C 215.851562 308.824219 189.902344 315.3125 167.054688 315.3125 C 140.257812 315.3125 110.640625 315.3125 78.203125 315.3125 C 77.921875 315.3125 77.921875 315.03125 78.203125 314.746094 C 84.691406 306.285156 84.40625 299.234375 84.40625 286.824219 C 84.40625 238.871094 84.40625 184.433594 84.691406 123.507812 C 84.691406 116.453125 82.152344 110.53125 77.355469 106.019531 C 77.074219 105.734375 77.074219 105.453125 77.355469 105.453125 L 132.921875 105.453125 C 133.207031 105.453125 133.488281 105.171875 133.488281 104.890625 C 133.769531 92.761719 133.769531 83.171875 133.488281 75.273438 C 133.207031 69.347656 130.667969 64.554688 126.152344 60.605469 C 125.871094 60.324219 125.871094 60.042969 126.4375 60.042969 C 160.566406 60.042969 190.183594 60.324219 215.003906 60.886719 C 225.722656 61.167969 233.339844 62.015625 238.417969 63.144531 C 253.648438 66.527344 271.699219 74.425781 279.597656 87.964844 C 285.523438 97.839844 286.933594 109.121094 283.828125 121.53125 C 280.164062 135.917969 267.46875 146.070312 254.210938 151.148438 C 251.390625 151.996094 249.136719 152.277344 247.160156 151.714844 C 243.492188 150.867188 241.238281 150.019531 239.546875 149.738281 C 238.980469 149.457031 238.980469 149.175781 239.546875 148.890625 C 257.597656 138.738281 263.804688 121.53125 260.980469 102.070312 C 258.445312 82.605469 247.160156 70.476562 227.132812 66.246094 C 211.902344 62.578125 196.671875 61.167969 182.003906 61.167969 C 176.078125 61.167969 169.027344 61.453125 160.847656 61.453125 C 158.027344 61.453125 156.617188 63.144531 156.617188 65.964844 L 156.617188 105.171875 C 156.617188 105.734375 156.898438 106.300781 157.464844 106.300781 C 166.773438 106.019531 175.234375 106.300781 182.847656 107.429688 C 192.722656 108.558594 202.875 111.941406 213.3125 117.582031 C 229.390625 126.042969 237.007812 139.867188 236.160156 158.484375 Z M 127.5625 269.054688 C 131.511719 263.695312 133.488281 257.488281 133.488281 250.71875 C 133.769531 173.996094 133.769531 129.429688 133.488281 117.300781 C 133.488281 117.019531 133.769531 116.738281 134.050781 116.738281 L 155.488281 116.738281 C 156.335938 116.738281 156.617188 117.019531 156.617188 117.582031 L 156.617188 202.484375 C 156.617188 202.765625 156.898438 203.050781 157.179688 203.050781 C 165.925781 202.765625 174.667969 203.332031 183.695312 204.460938 C 196.105469 205.871094 207.953125 209.535156 219.234375 215.179688 C 237.570312 224.484375 249.417969 239.152344 249.136719 259.746094 C 249.136719 260.027344 249.136719 260.027344 249.417969 260.027344 C 249.417969 260.027344 249.699219 260.027344 249.699219 260.027344 C 257.316406 255.796875 263.519531 249.871094 267.75 241.972656 C 273.109375 232.101562 275.933594 218 274.519531 206.714844 C 271.699219 184.433594 259.007812 170.046875 236.441406 162.996094 C 235.878906 162.714844 235.597656 162.996094 235.597656 163.558594 C 231.929688 181.328125 218.109375 192.046875 201.746094 197.40625 C 201.183594 197.691406 200.621094 197.691406 200.054688 197.691406 L 190.464844 195.152344 C 189.621094 194.871094 189.621094 194.585938 190.464844 194.023438 C 205.414062 185.5625 212.75 172.304688 212.464844 154.25 C 211.621094 130.277344 199.773438 115.890625 176.644531 111.09375 C 154.644531 106.300781 133.769531 106.300781 111.488281 106.863281 C 108.664062 106.863281 107.253906 108.273438 107.253906 111.09375 L 107.253906 308.824219 C 107.253906 311.644531 109.511719 313.902344 112.332031 313.902344 C 128.128906 313.902344 143.925781 313.621094 159.71875 313.054688 C 181.4375 312.492188 201.464844 310.800781 215.289062 292.464844 C 222.902344 282.308594 226.289062 267.359375 225.441406 254.667969 C 224.3125 235.203125 215.003906 221.382812 198.082031 212.359375 C 185.953125 206.433594 171.003906 205.023438 157.464844 204.742188 C 156.898438 204.742188 156.617188 205.023438 156.617188 205.585938 L 156.617188 263.695312 C 156.617188 266.515625 158.875 268.769531 161.695312 268.769531 L 215.851562 267.644531 C 216.132812 267.644531 216.414062 267.925781 216.132812 268.207031 L 215.851562 269.335938 C 215.851562 269.898438 215.570312 269.898438 215.289062 269.898438 L 128.128906 269.898438 C 127.28125 269.898438 127.28125 269.617188 127.5625 269.054688 Z M 127.5625 269.054688 "/></g></g></svg>