<svg xmlns="http://www.w3.org/2000/svg" xmlns:xlink="http://www.w3.org/1999/xlink" width="500" zoomAndPan="magnify" viewBox="0 0 375 374.999991" height="500" preserveAspectRatio="xMidYMid meet" version="1.2"><defs><clipPath id="0afc357a5e"><path d="M 97.96875 5.308594 L 283.898438 5.308594 L 283.898438 110.667969 L 97.96875 110.667969 Z M 97.96875 5.308594 "/></clipPath><clipPath id="575bc4545c"><path d="M 77.472656 111 L 299 111 L 299 367 L 77.472656 367 Z M 77.472656 111 "/></clipPath></defs><g id="08343c050d"><rect x="0" width="375" y="0" height="374.999991" style="fill:#ffffff;fill-opacity:1;stroke:none;"/><rect x="0" width="375" y="0" height="374.999991" style="fill:#d4af37;fill-opacity:1;stroke:none;"/><g clip-rule="nonzero" clip-path="url(#0afc357a5e)"><path style=" stroke:none;fill-rule:evenodd;fill:#0f0f0c;fill-opacity:1;" d="M 283.625 41.628906 L 278.542969 46.375 L 279.289062 49.625 C 254.90625 76.652344 238.804688 89.4375 234.105469 82.625 C 230.351562 69.695312 232.230469 56.90625 238.136719 44.222656 L 243.152344 41.875 L 244.121094 30.746094 L 236.410156 38.824219 L 237.988281 44.238281 C 231.613281 54.9375 224.761719 64.410156 216.929688 71.332031 C 208.683594 78.625 206.167969 79.644531 200.832031 68.179688 C 196.878906 59.683594 195.527344 48.300781 192.871094 38.367188 L 199.625 30.480469 L 190.796875 5.335938 L 181.96875 30.480469 L 188.722656 38.363281 C 186.066406 48.300781 184.714844 59.683594 180.761719 68.179688 C 175.425781 79.644531 172.914062 78.621094 164.660156 71.332031 C 156.828125 64.410156 149.980469 54.933594 143.605469 44.238281 L 145.183594 38.828125 L 137.472656 30.75 L 138.441406 41.875 L 143.460938 44.222656 C 149.367188 56.910156 151.246094 69.695312 147.492188 82.625 C 142.792969 89.4375 126.691406 76.652344 102.300781 49.625 L 103.050781 46.375 L 97.96875 41.628906 L 98.96875 48.511719 L 101.984375 49.71875 L 136.722656 110.195312 L 126.058594 80.816406 C 126.273438 80.992188 126.488281 81.167969 126.707031 81.339844 C 132.144531 85.695312 141.675781 92.75 148.898438 88.550781 C 150.121094 87.835938 151.144531 86.863281 151.949219 85.699219 L 152.445312 84.976562 L 152.691406 84.132812 C 154.148438 79.113281 154.828125 74.128906 154.835938 69.199219 C 156.820312 71.386719 158.898438 73.460938 161.078125 75.386719 C 164.75 78.632812 169.402344 82.914062 174.707031 82.128906 C 180.445312 81.285156 183.484375 75.167969 185.671875 70.460938 C 188.097656 65.246094 189.550781 59.433594 190.796875 53.730469 C 192.050781 59.433594 193.5 65.246094 195.925781 70.460938 C 198.117188 75.167969 201.152344 81.285156 206.886719 82.128906 C 212.195312 82.910156 216.847656 78.632812 220.515625 75.386719 C 222.699219 73.460938 224.777344 71.386719 226.757812 69.199219 C 226.769531 74.132812 227.449219 79.113281 228.90625 84.132812 L 229.148438 84.976562 L 229.648438 85.699219 C 230.453125 86.863281 231.476562 87.835938 232.699219 88.550781 C 239.925781 92.753906 249.453125 85.695312 254.890625 81.339844 C 255.109375 81.167969 255.324219 80.992188 255.539062 80.816406 L 246.179688 108.023438 L 279.613281 49.71875 L 282.625 48.511719 Z M 283.625 41.628906 "/></g><path style=" stroke:none;fill-rule:evenodd;fill:#0f0f0c;fill-opacity:1;" d="M 172.5625 64.074219 C 173.1875 66.914062 173.886719 69.789062 174.835938 72.535156 C 175.472656 71.703125 176.332031 70.3125 177.46875 67.976562 C 175.738281 61.59375 174.789062 54.34375 172.5625 48.511719 C 170.15625 54.816406 169.246094 62.777344 167.222656 69.507812 C 168.117188 70.296875 169.296875 71.308594 170.421875 72.152344 C 171.308594 69.523438 171.972656 66.78125 172.5625 64.074219 Z M 172.5625 64.074219 "/><path style=" stroke:none;fill-rule:evenodd;fill:#0f0f0c;fill-opacity:1;" d="M 208.976562 64.074219 C 209.574219 66.792969 210.242188 69.542969 211.132812 72.183594 C 212.25 71.347656 213.429688 70.339844 214.332031 69.546875 C 212.300781 62.808594 211.390625 54.824219 208.976562 48.511719 C 206.761719 54.320312 205.8125 61.542969 204.09375 67.90625 C 205.222656 70.238281 206.085938 71.640625 206.722656 72.484375 C 207.664062 69.757812 208.359375 66.898438 208.976562 64.074219 Z M 208.976562 64.074219 "/><path style=" stroke:none;fill-rule:evenodd;fill:#0f0f0c;fill-opacity:1;" d="M 241.164062 80.382812 C 241.824219 76.058594 242.953125 71.515625 243.0625 67.457031 C 240.511719 70.15625 238.277344 73.746094 235.933594 77.035156 C 236.152344 78.238281 236.421875 79.433594 236.734375 80.625 C 237.445312 79.699219 238.125 78.746094 238.785156 77.796875 C 238.578125 78.964844 238.382812 80.144531 238.230469 81.332031 C 238.957031 81.242188 239.914062 80.964844 241.164062 80.382812 Z M 241.164062 80.382812 "/><path style=" stroke:none;fill-rule:evenodd;fill:#0f0f0c;fill-opacity:1;" d="M 145.660156 77.039062 C 143.316406 73.746094 141.082031 70.15625 138.53125 67.457031 C 138.640625 71.515625 139.769531 76.058594 140.429688 80.378906 C 141.679688 80.964844 142.632812 81.238281 143.363281 81.332031 C 143.207031 80.144531 143.015625 78.960938 142.804688 77.792969 C 143.46875 78.742188 144.148438 79.695312 144.859375 80.621094 C 145.171875 79.433594 145.441406 78.238281 145.660156 77.039062 Z M 145.660156 77.039062 "/><g clip-rule="nonzero" clip-path="url(#575bc4545c)"><path style=" stroke:none;fill-rule:evenodd;fill:#0f0f0c;fill-opacity:1;" d="M 236.597656 209.605469 C 236.597656 210.167969 236.878906 210.734375 237.445312 210.734375 C 269.890625 216.941406 304.027344 233.867188 298.105469 273.648438 C 294.4375 297.632812 271.300781 310.328125 249.859375 316.535156 C 249.578125 316.816406 249.292969 317.097656 249.011719 317.664062 C 247.320312 328.949219 242.242188 337.976562 233.777344 345.3125 C 216.285156 359.984375 190.328125 366.472656 167.472656 366.472656 C 140.671875 366.472656 111.046875 366.472656 78.601562 366.472656 C 78.316406 366.472656 78.316406 366.191406 78.601562 365.910156 C 85.089844 357.445312 84.808594 350.390625 84.808594 337.976562 C 84.808594 290.015625 84.808594 235.5625 85.089844 174.617188 C 85.089844 167.566406 82.550781 161.640625 77.753906 157.125 C 77.472656 156.84375 77.472656 156.5625 77.753906 156.5625 L 133.335938 156.5625 C 133.617188 156.5625 133.898438 156.28125 133.898438 155.996094 C 134.179688 143.867188 134.179688 134.273438 133.898438 126.371094 C 133.617188 120.449219 131.078125 115.652344 126.5625 111.703125 C 126.28125 111.417969 126.28125 111.136719 126.84375 111.136719 C 160.984375 111.136719 190.609375 111.417969 215.4375 111.984375 C 226.160156 112.265625 233.777344 113.113281 238.855469 114.242188 C 254.089844 117.625 272.148438 125.527344 280.046875 139.070312 C 285.972656 148.945312 287.382812 160.230469 284.28125 172.644531 C 280.613281 187.03125 267.914062 197.191406 254.65625 202.269531 C 251.832031 203.113281 249.578125 203.398438 247.601562 202.832031 C 243.933594 201.984375 241.675781 201.140625 239.984375 200.859375 C 239.417969 200.574219 239.417969 200.292969 239.984375 200.011719 C 258.039062 189.855469 264.246094 172.644531 261.425781 153.175781 C 258.886719 133.707031 247.601562 121.578125 227.570312 117.34375 C 212.332031 113.675781 197.097656 112.265625 182.425781 112.265625 C 176.503906 112.265625 169.449219 112.546875 161.265625 112.546875 C 158.445312 112.546875 157.035156 114.242188 157.035156 117.0625 L 157.035156 156.28125 C 157.035156 156.84375 157.316406 157.410156 157.882812 157.410156 C 167.191406 157.125 175.65625 157.410156 183.273438 158.535156 C 193.148438 159.664062 203.304688 163.050781 213.746094 168.695312 C 229.828125 177.15625 237.445312 190.984375 236.597656 209.605469 Z M 127.972656 320.203125 C 131.925781 314.84375 133.898438 308.636719 133.898438 301.863281 C 134.179688 225.121094 134.179688 180.542969 133.898438 168.410156 C 133.898438 168.128906 134.179688 167.847656 134.464844 167.847656 L 155.90625 167.847656 C 156.753906 167.847656 157.035156 168.128906 157.035156 168.695312 L 157.035156 253.617188 C 157.035156 253.898438 157.316406 254.183594 157.597656 254.183594 C 166.34375 253.898438 175.089844 254.464844 184.121094 255.59375 C 196.535156 257.003906 208.382812 260.671875 219.667969 266.3125 C 238.007812 275.625 249.859375 290.296875 249.578125 310.890625 C 249.578125 311.175781 249.578125 311.175781 249.859375 311.175781 C 249.859375 311.175781 250.140625 311.175781 250.140625 311.175781 C 257.757812 306.941406 263.964844 301.015625 268.199219 293.117188 C 273.558594 283.242188 276.378906 269.136719 274.96875 257.851562 C 272.148438 235.5625 259.453125 221.171875 236.878906 214.117188 C 236.316406 213.835938 236.035156 214.117188 236.035156 214.683594 C 232.367188 232.457031 218.539062 243.179688 202.175781 248.539062 C 201.613281 248.820312 201.046875 248.820312 200.484375 248.820312 L 190.890625 246.28125 C 190.042969 246 190.042969 245.71875 190.890625 245.152344 C 205.84375 236.691406 213.179688 223.429688 212.898438 205.371094 C 212.050781 181.390625 200.203125 167 177.066406 162.203125 C 155.058594 157.410156 134.179688 157.410156 111.890625 157.972656 C 109.070312 157.972656 107.660156 159.382812 107.660156 162.203125 L 107.660156 359.984375 C 107.660156 362.804688 109.917969 365.0625 112.738281 365.0625 C 128.539062 365.0625 144.339844 364.78125 160.136719 364.214844 C 181.863281 363.652344 201.894531 361.960938 215.71875 343.621094 C 223.335938 333.464844 226.722656 318.511719 225.875 305.8125 C 224.746094 286.347656 215.4375 272.519531 198.507812 263.492188 C 186.378906 257.566406 171.421875 256.15625 157.882812 255.875 C 157.316406 255.875 157.035156 256.15625 157.035156 256.722656 L 157.035156 314.84375 C 157.035156 317.664062 159.292969 319.921875 162.113281 319.921875 L 216.285156 318.792969 C 216.566406 318.792969 216.847656 319.074219 216.566406 319.355469 L 216.285156 320.484375 C 216.285156 321.050781 216 321.050781 215.71875 321.050781 L 128.539062 321.050781 C 127.691406 321.050781 127.691406 320.765625 127.972656 320.203125 Z M 127.972656 320.203125 "/></g></g></svg>